# AST/ASF file generated using VICON BodyLanguage
# -----------------------------------------------
:version 1.10
:name VICON
:units
  mass 1.0
  length 0.45
  angle deg
:documentation
   .ast/.asf automatically generated from VICON data using
   VICON BodyBuilder and BodyLanguage model FoxedUp or BRILLIANT.MOD
:root
   order TX TY TZ RX RY RZ
   axis XYZ
   position 0 0 0  
   orientation 0 0 0 
:bonedata
  begin
     id 1 
     name lhipjoint
     direction 0.671379 -0.66392 0.329334 
     length 2.38647 
     axis 0 0 0  XYZ
  end
  begin
     id 2 
     name lfemur
     direction 0.34202 -0.939693 0  
     length 6.48179  
     axis 0 0 20  XYZ
    dof rx ry rz
    limits (-160.0 20.0)
           (-70.0 70.0)
           (-60.0 70.0)
  end
  begin
     id 3 
     name ltibia
     direction 0.34202 -0.939693 0   
     length 6.86524   
     axis 0 0 20   XYZ
    dof rx
    limits (-10.0 170.0)
  end
  begin
     id 4 
     name lfoot
     direction 0.204886 -0.562919 0.800715   
     length 1.73031   
     axis -90 7.62852e-016 20   XYZ
    dof rx rz
    limits (-45.0 90.0)
           (-70.0 20.0)
  end
  begin
     id 5 
     name ltoes
     direction 1.53548e-011 -4.21841e-011 1   
     length 0.828161   
     axis -90 7.62852e-016 20   XYZ
    dof rx
    limits (-90.0 20.0)
  end
  begin
     id 6 
     name rhipjoint
     direction -0.662732 -0.670855 0.332775   
     length 2.3618  
     axis 0 0 0  XYZ 
  end
  begin
     id 7 
     name rfemur
     direction -0.34202 -0.939693 0   
     length 6.3025   
     axis 0 0 -20   XYZ
    dof rx ry rz
    limits (-160.0 20.0)
           (-70.0 70.0)
           (-70.0 60.0)
  end
  begin
     id 8 
     name rtibia
     direction -0.34202 -0.939693 0   
     length 6.8732   
     axis 0 0 -20   XYZ
    dof rx
    limits (-10.0 170.0)
 end
 begin
     id 9 
     name rfoot
     direction -0.173856 -0.477665 0.861168   
     length 1.54784  
     axis -90 -7.62852e-016 -20   XYZ
    dof rx rz
    limits (-45.0 90.0)
           (-20.0 70.0)
  end
  begin
     id 10 
     name rtoes
     direction -1.53562e-011 -4.21802e-011 1   
     length 0.759618   
     axis -90 -7.62852e-016 -20   XYZ
    dof rx
    limits (-90.0 20.0)
  end
  begin
     id 11 
     name lowerback
     direction -0.0278357 0.999497 -0.0151789   
     length 1.97203   
     axis 0 0 0   XYZ
    dof rx ry rz
    limits (-20.0 45.0)
           (-30.0 30.0)
           (-30.0 30.0)
  end
  begin
     id 12 
     name upperback
     direction -0.00360622 0.997542 0.0699804   
     length 1.94709   
     axis 0 0 0   XYZ
    dof rx ry rz
    limits (-20.0 45.0)
           (-30.0 30.0)
           (-30.0 30.0)
  end
  begin
     id 13 
     name thorax
     direction 0.00907706 0.997048 0.0762461   
     length 1.95722   
     axis 0 0 0   XYZ
    dof rx ry rz
    limits (-20.0 45.0)
           (-30.0 30.0)
           (-30.0 30.0)
  end
  begin
     id 14 
     name lowerneck
     direction -0.0481835 0.99872 -0.0153927   
     length 1.63078   
     axis 0 0 0   XYZ
    dof rx ry rz
    limits (-20.0 45.0)
           (-30.0 30.0)
           (-30.0 30.0)
  end
  begin
     id 15 
     name upperneck
     direction 0.0859716 0.979226 -0.183644   
     length 1.62591   
     axis 0 0 0   XYZ
    dof rx ry rz
    limits (-20.0 45.0)
           (-30.0 30.0)
           (-30.0 30.0)
  end
  begin
     id 16
     name head
     direction 0.0324821 0.997629 -0.0606773  
     length 1.64811  
     axis 0 0 0   XYZ
    dof rx ry rz
    limits (-20.0 45.0)
           (-30.0 30.0)
           (-30.0 30.0)
  end
  begin
     id 17 
     name lclavicle
     direction 0.939609 0.311019 0.142835  
     length 3.70647  
     axis 0 0 0   XYZ
    dof ry rz
    limits (-20.0 10.0)
           (0.0 20.0)
  end
  begin
     id 18 
     name lhumerus
     direction 1 -4.48963e-011 -1.59838e-027   
     length 4.59207   
     axis 180 -30 -90   XYZ
    dof rx ry rz
    limits (-60.0 90.0)
           (-90.0 90.0)
           (-90.0 90.0)
  end
  begin
     id 19
     name lradius
     direction 1 -4.48957e-011 -1.3483e-026   
     length 2.98109   
     axis 180 -30 -90   XYZ
    dof rx
    limits (-10.0 170.0)
  end
  begin
     id 20
     name lwrist
     direction 1 -4.48954e-011 -3.11579e-026   
     length 1.49055   
     axis 2.00652e-014 90 90   XYZ
    dof ry
    limits (-180.0 0.0)
 end
  begin
     id 21 
     name lhand
     direction 1 -4.4911e-011 -6.23158e-026   
     length 0.480203   
     axis 3.97628e-014 90 90   XYZ
    dof rx rz
    limits (-90.0 90.0)
           (-45.0 45.0)
  end
  begin
     id 22 
     name lfingers
     direction 1 -4.48893e-011 -1.24632e-025   
     length 0.387152   
     axis 7.95256e-014 90 90   XYZ
    dof rx
    limits (0.0 90.0)
  end
  begin
     id 23
     name lthumb
     direction 0.707107 -6.35013e-011 0.707107   
     length 0.555875   
     axis -90 45 2.85299e-015   XYZ
    dof rx rz
    limits (-45.0 45.0)
           (-45.0 45.0)
  end
  begin
     id 24 
     name rclavicle
     direction -0.950396 0.30392 0.0661859   
     length 3.70894  
     axis 0 0 0   XYZ 
    dof ry rz
    limits (-10.0 20.0)
           (-20.0 0.0)
  end
  begin
     id 25 
     name rhumerus
     direction -1 -4.48957e-011 -2.96677e-027  
     length 4.76508   
     axis 180 30 90   XYZ
    dof rx ry rz
    limits (-90.0 60.0)
           (-90.0 90.0)
           (-90.0 90.0)
  end
  begin
     id 26 
     name rradius
     direction -1 -4.48974e-011 -1.44501e-026   
     length 2.78902   
     axis 180 30 90   XYZ
    dof rx
    limits (-10.0 170.0)
  end
  begin
     id 27 
     name rwrist
     direction -1 -4.48978e-011 -3.11579e-026   
     length 1.39451   
     axis 2.00652e-014 -90 -90   XYZ
    dof ry
    limits (-180.0 0.0)
  end
  begin
     id 28
     name rhand
     direction -1 -4.48956e-011 -6.23158e-026   
     length 0.721303   
     axis 3.97628e-014 -90 -90   XYZ
    dof rx rz
    limits (-90.0 90.0)
           (-45.0 45.0)
  end
  begin
     id 29
     name rfingers
     direction -1 -4.4899e-011 -1.24632e-025   
     length 0.581533   
     axis 7.95256e-014 -90 -90   XYZ
    dof rx
    limits (0.0 90.0)
  end
  begin
     id 30
     name rthumb
     direction -0.707107 -6.34911e-011 0.707107   
     length 0.834968   
     axis -90 -45 -2.85299e-015   XYZ
    dof rx rz
    limits (-45.0 45.0)
           (-45.0 45.0)
  end
:hierarchy
  begin
    root lhipjoint rhipjoint lowerback
    lhipjoint lfemur
    lfemur ltibia
    ltibia lfoot
    lfoot ltoes
    rhipjoint rfemur
    rfemur rtibia
    rtibia rfoot
    rfoot rtoes
    lowerback upperback
    upperback thorax
    thorax lowerneck lclavicle rclavicle
    lowerneck upperneck
    upperneck head
    lclavicle lhumerus
    lhumerus lradius
    lradius lwrist
    lwrist lhand lthumb
    lhand lfingers
    rclavicle rhumerus
    rhumerus rradius
    rradius rwrist
    rwrist rhand rthumb
    rhand rfingers
  end

#!OML:ASF I:\salsa\salsa 7_09\Patient 1\Session 1\dancerfemale.ASF
:FULLY-SPECIFIED
:DEGREES
923
root -1.17345 16.3783 -3.32974 -353.497 -10.28 347.89
lowerback 3.31035 5.9806 4.07087
upperback -4.43638 8.37404 1.71885
thorax -6.15418 3.99973 -1.15616
lowerneck 4.4551 -5.41835 -11.6447
upperneck 22.8185 -8.60594 7.3142
head 7.0695 -4.61674 3.91431
rclavicle 3.17062e-014 3.18055e-015
rhumerus -27.0284 36.2037 -118.207
rradius 71.8851
rwrist 2.19111
rhand 5.78679 38.1346
rfingers 7.12502
rthumb 31.1201 10.7561
lclavicle 3.17062e-014 3.18055e-015
lhumerus 3.63009 23.6155 45.0577
lradius 71.7614
lwrist 45.9347
lhand 13.4882 34.8042
lfingers 7.12502
lthumb 38.4267 60.4861
rfemur -10.6968 -7.80713 30.8256
rtibia 14.4309
rfoot -0.87839 17.0823
rtoes -32.6774
lfemur -24.8287 -14.4641 -4.50278
ltibia 79.1323
lfoot 16.2229 0.293114
ltoes 13.7918
924
root -1.33167 16.3352 -3.26878 -353.624 -10.9909 347.045
lowerback 3.82759 6.23054 4.41683
upperback -4.37682 8.77831 1.9972
thorax -6.36693 4.18287 -1.14388
lowerneck 4.28009 -5.12552 -11.2371
upperneck 23.0288 -8.13741 7.02105
head 7.08946 -4.37382 3.77701
rclavicle 3.6067e-014 -2.62396e-014
rhumerus -27.4211 36.3965 -118.637
rradius 71.5786
rwrist 2.42843
rhand 5.69852 39.3449
rfingers 7.12502
rthumb 31.036 11.9503
lclavicle 3.6067e-014 -2.62396e-014
lhumerus 3.24779 24.7583 44.3407
lradius 71.4897
lwrist 46.0221
lhand 13.143 35.0248
lfingers 7.12502
lthumb 38.1009 60.7965
rfemur -10.2105 -8.37952 32.0061
rtibia 14.9696
rfoot -0.501971 19.0613
rtoes -30.8745
lfemur -25.8681 -12.6124 -5.9618
ltibia 82.4558
lfoot 21.8571 -0.102919
ltoes 15.3339
925
root -1.46856 16.2955 -3.20506 -353.712 -11.4132 346.156
lowerback 4.3745 6.36414 5.03835
upperback -4.34812 9.05535 2.26899
thorax -6.59291 4.28735 -1.2828
lowerneck 3.9957 -4.81019 -10.8436
upperneck 23.3265 -7.62988 6.71829
head 7.15723 -4.11262 3.63834
rclavicle -1.14798e-014 -1.59028e-014
rhumerus -28.003 36.6814 -119.048
rradius 71.4019
rwrist 2.46939
rhand 5.89517 40.4789
rfingers 7.12502
rthumb 31.2234 13.1202
lclavicle -1.14798e-014 -1.59028e-014
lhumerus 2.6983 25.9757 43.5911
lradius 71.2581
lwrist 45.9692
lhand 12.9454 35.1258
lfingers 7.12502
lthumb 37.9143 60.9483
rfemur -9.77299 -9.76079 33.1436
rtibia 15.396
rfoot 0.134669 21.6853
rtoes -29.085
lfemur -26.9742 -10.6962 -7.35566
ltibia 85.4943
lfoot 28.3971 -0.156392
ltoes 16.0901
926
root -1.5961 16.2709 -3.12892 -353.903 -11.6545 345.498
lowerback 4.92899 6.43296 5.4104
upperback -4.32083 9.23852 2.57514
thorax -6.87115 4.35556 -1.24999
lowerneck 3.80436 -4.48895 -10.5767
upperneck 23.5161 -7.10126 6.34337
head 7.17943 -3.85836 3.49961
rclavicle -1.07841e-013 -1.74931e-014
rhumerus -28.8618 37.0763 -119.493
rradius 71.4232
rwrist 2.56992
rhand 6.24313 41.1314
rfingers 7.12502
rthumb 31.555 13.8372
lclavicle -1.07841e-013 -1.74931e-014
lhumerus 1.9301 27.1512 42.8973
lradius 71.1979
lwrist 45.8985
lhand 13.044 35.212
lfingers 7.12502
lthumb 38.0075 61.0092
rfemur -9.16449 -11.5911 33.9292
rtibia 15.6428
rfoot 1.01836 24.6031
rtoes -27.2532
lfemur -27.8695 -8.54759 -8.9075
ltibia 88.1218
lfoot 35.0074 -0.740493
ltoes 17.2767
927
root -1.71746 16.248 -3.0421 -353.995 -11.7738 344.911
lowerback 5.18123 6.53988 5.72828
upperback -4.25326 9.44163 2.83368
thorax -6.93132 4.44426 -1.19817
lowerneck 3.5735 -4.20306 -10.3355
upperneck 23.6394 -6.62944 6.05081
head 7.19819 -3.62635 3.38748
rclavicle -7.82715e-015 2.3059e-014
rhumerus -29.6583 37.4539 -119.778
rradius 71.6309
rwrist 2.82582
rhand 6.46578 41.8617
rfingers 7.12502
rthumb 31.767 14.6093
lclavicle -7.82715e-015 2.3059e-014
lhumerus 1.41317 28.2539 42.3488
lradius 71.1768
lwrist 45.6963
lhand 13.6958 35.3859
lfingers 7.12502
lthumb 38.6226 61.0129
rfemur -8.56112 -13.4902 34.5832
rtibia 15.7258
rfoot 2.24881 27.4401
rtoes -24.3915
lfemur -28.7635 -6.07469 -10.3283
ltibia 90.3776
lfoot 36.7931 -0.730178
ltoes 12.3109
928
root -1.83178 16.2177 -2.95488 -353.54 -11.7564 344.148
lowerback 4.92557 6.72122 6.29105
upperback -4.34954 9.72175 2.95751
thorax -6.80886 4.56218 -1.36271
lowerneck 3.32576 -3.96849 -9.91345
upperneck 23.8031 -6.25499 5.8644
head 7.23957 -3.41826 3.27443
rclavicle 4.84413e-014 3.49861e-014
rhumerus -30.3619 37.5706 -119.976
rradius 71.9478
rwrist 3.1637
rhand 6.51096 42.9508
rfingers 7.12502
rthumb 31.8101 15.707
lclavicle 4.84413e-014 3.49861e-014
lhumerus 1.25472 29.1817 41.8208
lradius 71.0598
lwrist 45.4129
lhand 14.225 35.6249
lfingers 7.12502
lthumb 39.1216 61.1099
rfemur -8.49436 -15.1642 35.5579
rtibia 15.6757
rfoot 3.80521 29.8748
rtoes -21.2926
lfemur -30.2528 -3.34258 -11.317
ltibia 92.4701
lfoot 36.596 -0.748481
ltoes 9.35212
929
root -1.94665 16.1908 -2.86988 -352.515 -11.6539 343.346
lowerback 4.13377 6.95323 6.52409
upperback -4.61675 10.0105 3.17727
thorax -6.63036 4.70738 -1.19384
lowerneck 3.18031 -3.71168 -9.54981
upperneck 23.7929 -5.8563 5.69886
head 7.2087 -3.20197 3.18064
rclavicle -1.22998e-015 -3.49861e-014
rhumerus -31.1784 37.6958 -120.038
rradius 72.1666
rwrist 3.30204
rhand 6.16143 44.518
rfingers 7.12502
rthumb 31.4771 17.2086
lclavicle -1.22998e-015 -3.49861e-014
lhumerus 1.05345 30.1302 41.4164
lradius 70.9339
lwrist 45.2453
lhand 14.8748 35.9582
lfingers 7.12502
lthumb 39.7338 61.264
rfemur -9.04623 -16.3554 36.7979
rtibia 15.5958
rfoot 5.4062 32.0271
rtoes -19.46
lfemur -32.2149 -0.53207 -11.3185
ltibia 94.0988
lfoot 36.3793 0.547122
ltoes 10.2122
930
root -2.04323 16.1669 -2.78018 -352.446 -11.0418 342.591
lowerback 4.20941 7.02665 7.01283
upperback -4.61765 10.168 3.41264
thorax -6.63243 4.76698 -1.229
lowerneck 3.02671 -3.49617 -9.05459
upperneck 23.7203 -5.51776 5.53815
head 7.16137 -3.00178 3.06172
rclavicle -4.01794e-014 2.46493e-014
rhumerus -31.8214 37.5034 -119.818
rradius 72.1868
rwrist 3.45655
rhand 5.44061 46.6979
rfingers 7.12502
rthumb 30.7901 19.2567
lclavicle -4.01794e-014 2.46493e-014
lhumerus 1.01467 30.8824 41.163
lradius 70.8652
lwrist 45.398
lhand 15.6801 36.4685
lfingers 7.12502
lthumb 40.4915 61.5444
rfemur -8.58126 -17.8374 37.6048
rtibia 15.4326
rfoot 6.70924 34.1794
rtoes -19.1777
lfemur -33.2769 1.64153 -11.3782
ltibia 95.3814
lfoot 36.2229 1.54771
ltoes 11.3913
931
root -2.13493 16.1449 -2.70174 -352.454 -10.0772 341.839
lowerback 4.38751 7.11463 7.59522
upperback -4.57955 10.3542 3.54851
thorax -6.61396 4.83428 -1.42618
lowerneck 2.71622 -3.4164 -8.34352
upperneck 23.7541 -5.34787 5.28915
head 7.18351 -2.86796 2.86441
rclavicle 4.72781e-014 -1.27222e-014
rhumerus -32.0365 36.6334 -119.092
rradius 72.194
rwrist 4.20254
rhand 5.11798 49.0585
rfingers 7.12502
rthumb 30.4825 21.5597
lclavicle 4.72781e-014 -1.27222e-014
lhumerus 1.33954 31.3866 41.1996
lradius 70.8293
lwrist 45.6169
lhand 16.1431 37.0882
lfingers 7.12502
lthumb 40.9266 62.0279
rfemur -8.08911 -19.0684 38.4465
rtibia 15.1309
rfoot 7.88666 35.4902
rtoes -18.343
lfemur -34.5261 3.42371 -10.8989
ltibia 96.3859
lfoot 35.3203 1.40709
ltoes 9.98105
932
root -2.22458 16.1257 -2.63463 -352.614 -9.12992 341.118
lowerback 4.81061 7.1476 8.10618
upperback -4.42021 10.4856 3.74025
thorax -6.62979 4.87901 -1.55107
lowerneck 2.41999 -3.24531 -8.0959
upperneck 23.6073 -5.08338 5.29244
head 7.1575 -2.70948 2.83415
rclavicle 1.55549e-014 3.57812e-014
rhumerus -32.1732 35.7037 -118.209
rradius 72.2609
rwrist 5.34132
rhand 4.72693 51.2336
rfingers 7.12502
rthumb 30.1095 23.6662
lclavicle 1.55549e-014 3.57812e-014
lhumerus 1.32796 32.0754 41.0968
lradius 70.9113
lwrist 45.7476
lhand 16.8818 37.4624
lfingers 7.12502
lthumb 41.6199 62.1786
rfemur -7.3943 -19.4956 39.268
rtibia 14.6614
rfoot 8.72014 35.6806
rtoes -17.2941
lfemur -35.6555 5.02505 -9.83964
ltibia 97.0409
lfoot 35.0529 0.823233
ltoes 7.15296
933
root -2.30828 16.1156 -2.55601 -352.948 -8.21053 340.623
lowerback 5.27989 7.09406 8.37965
upperback -4.17158 10.4872 3.98401
thorax -6.63365 4.87518 -1.49165
lowerneck 2.24997 -2.8756 -8.19019
upperneck 23.2803 -4.55683 5.40367
head 7.04311 -2.4477 2.91419
rclavicle -5.98342e-014 -2.94201e-014
rhumerus -32.4234 34.9141 -117.357
rradius 72.2562
rwrist 6.36473
rhand 3.91886 53.4493
rfingers 7.12502
rthumb 29.3382 25.7442
lclavicle -5.98342e-014 -2.94201e-014
lhumerus 0.537858 32.5991 40.3839
lradius 71.3125
lwrist 46.3689
lhand 17.6549 37.6778
lfingers 7.12502
lthumb 42.3445 62.1513
rfemur -6.5153 -19.4247 39.8115
rtibia 14.2487
rfoot 8.72379 35.4755
rtoes -17.7044
lfemur -36.4047 6.39417 -8.62614
ltibia 97.1822
lfoot 34.6139 1.2191
ltoes 14.1266
934
root -2.3712 16.1157 -2.46471 -353.74 -7.05674 340.578
lowerback 6.06027 7.016 8.49137
upperback -3.83215 10.4626 4.06602
thorax -6.71387 4.85824 -1.54915
lowerneck 2.02234 -2.44917 -7.90692
upperneck 23.0325 -3.89156 5.14256
head 6.94065 -2.11326 2.81446
rclavicle -2.07481e-014 -3.89618e-014
rhumerus -32.5682 34.0523 -116.401
rradius 72.1493
rwrist 6.6322
rhand 3.26513 55.3947
rfingers 7.12502
rthumb 28.7139 27.5821
lclavicle -2.07481e-014 -3.89618e-014
lhumerus -0.226899 32.5742 39.5688
lradius 71.8574
lwrist 47.5214
lhand 18.038 37.8687
lfingers 7.12502
lthumb 42.7031 62.2188
rfemur -5.34392 -19.5765 39.7364
rtibia 14.0516
rfoot 7.7306 35.0472
rtoes -18.8044
lfemur -36.6197 7.06077 -7.74782
ltibia 96.7705
lfoot 31.5026 4.70121
ltoes 19.7795
935
root -2.41344 16.1139 -2.37815 -354.42 -5.52961 340.805
lowerback 6.77216 6.92641 8.57104
upperback -3.58513 10.4103 3.9965
thorax -6.83199 4.82193 -1.73897
lowerneck 1.94011 -2.04632 -7.48298
upperneck 22.7693 -3.2438 4.71484
head 6.80993 -1.78876 2.63611
rclavicle -6.71147e-014 -3.97569e-015
rhumerus -32.6898 33.1959 -115.444
rradius 72.2192
rwrist 6.11941
rhand 2.80388 56.266
rfingers 7.12502
rthumb 28.2731 28.3796
lclavicle -6.71147e-014 -3.97569e-015
lhumerus -0.7472 32.4078 39.1445
lradius 72.5959
lwrist 48.6432
lhand 18.4212 38.1335
lfingers 7.12502
lthumb 43.0616 62.3576
rfemur -4.61786 -19.6296 39.5266
rtibia 14.1947
rfoot 5.59912 34.0005
rtoes -19.1115
lfemur -37.159 7.17893 -7.08891
ltibia 95.9217
lfoot 28.4622 5.25336
ltoes 23.3316
